<?xml version="1.0" encoding="utf-8"?>
<!DOCTYPE svg PUBLIC "-//W3C//DTD SVG 1.1//EN" "http://www.w3.org/Graphics/SVG/1.1/DTD/svg11.dtd">
<svg version="1.1" width="1280.0" height="700.0" viewBox="0.0000 0.0000 640.0000 350.0000" xmlns="http://www.w3.org/2000/svg" xmlns:xlink="http://www.w3.org/1999/xlink"><desc>Generated by jp.ac.soka.unemi.TUDraw 1.0a1</desc><g><path d="M381.600,160.000L521.100,160.000L521.100,259.500L381.600,259.500Z" fill="#21FE06" fill-opacity="0.251" stroke="none" stroke-width="1.000"></path><path d="M540.600,60.500L581.100,60.500L581.100,159.500L540.600,159.500Z" fill="#7F7F7F" fill-opacity="0.250" stroke="none" stroke-width="1.000"></path><path d="M228.100,60.500L541.100,60.500L540.977,159.234L382.100,159.354L382.100,259.500L228.100,259.500Z" fill="#FB0106" fill-opacity="0.250" stroke="none" stroke-width="1.000"></path><path d="M123.097,60.500L227.103,60.500L227.103,259.500L123.097,259.500Z" fill="#FEFE0A" fill-opacity="0.250" stroke="none" stroke-width="1.000"></path><path d="M72.500,60.500L121.500,60.500L121.500,259.500L72.500,259.500Z" fill="#0000FE" fill-opacity="0.250" stroke="none" stroke-width="1.000"></path><g><path d="M581.506,260.674L71.506,260.674L71.506,40.674" fill="none" stroke="#000000" stroke-width="2.000"></path><polygon points="590.506,260.674 575.142,267.038 575.142,254.310" fill="#000000"></polygon><polygon points="71.506,31.674 77.870,47.038 65.142,47.038" fill="#000000"></polygon></g><text x="53.280" y="5.000" font-family="Hiragino Sans" font-size="18.0" fill="#000000"><tspan x="53.280" y="21.000">症状</tspan></text><text x="23.000" y="74.883" font-family="Hiragino Sans" font-size="18.0" fill="#000000"><tspan x="23.000" y="90.883">重い</tspan></text><text x="23.000" y="169.662" font-family="Hiragino Sans" font-size="18.0" fill="#000000"><tspan x="23.000" y="185.662">軽い</tspan></text><path d="M121.506,260.674L331.506,160.674" fill="none" stroke="#000000" stroke-width="3.000"></path><path d="M381.506,260.674L331.506,160.674L542.006,61.174" fill="none" stroke="#000000" stroke-width="3.000" stroke-dasharray=" 5.000 2.000"></path><path d="M581.506,60.674L71.506,60.674" fill="none" stroke="#000000" stroke-width="1.000"></path><text x="598.768" y="251.282" font-family="Hiragino Sans" font-size="18.0" fill="#000000"><tspan x="598.768" y="267.282">時間</tspan></text><path d="M281.006,210.174L71.006,210.174" fill="none" stroke="#000000" stroke-width="1.000"></path><text x="23.000" y="50.455" font-family="Hiragino Sans" font-size="18.0" fill="#000000"><tspan x="23.000" y="66.455">死亡</tspan></text><text x="23.000" y="196.735" font-family="Hiragino Sans" font-size="18.0" fill="#000000"><tspan x="23.000" y="212.735">発症</tspan></text><g><path d="M41.506,110.674L41.506,150.674" fill="none" stroke="#000000" stroke-width="2.000"></path><polygon points="41.506,101.674 47.870,117.038 35.142,117.038" fill="#000000"></polygon><polygon points="41.506,159.674 35.142,144.310 47.870,144.310" fill="#000000"></polygon></g><text x="5.000" y="231.674" font-family="Hiragino Sans" font-size="18.0" fill="#000000"><tspan x="5.000" y="247.674">無症状</tspan></text><path d="M98.935,236.638C96.174,236.638 93.935,234.400 93.935,231.638L93.935,211.638C93.935,208.877 96.174,206.638 98.935,206.638L138.935,206.638C141.697,206.638 143.935,208.877 143.935,211.638L143.935,231.638C143.935,234.400 141.697,236.638 138.935,236.638L125.552,236.638L121.506,260.674L114.116,236.638Z" fill="#FEFEFD" fill-opacity="0.500" stroke="#000000" stroke-width="1.000" stroke-linejoin="round"></path><text x="101.506" y="210.674" font-family="Hiragino Sans" font-size="18.0" fill="#000000"><tspan x="101.506" y="226.674">感染</tspan></text><path d="M238.301,234.001C235.540,234.001 233.301,236.240 233.301,239.001L233.301,259.001C233.301,261.762 235.540,264.001 238.301,264.001L278.301,264.001C281.063,264.001 283.301,261.762 283.301,259.001L283.301,239.001C283.301,236.240 281.063,234.001 278.301,234.001L264.918,234.001L228.799,210.163L243.483,234.001Z" fill="#FEFEFD" fill-opacity="0.500" stroke="#000000" stroke-width="1.000" stroke-linejoin="round"></path><text x="240.967" y="237.665" font-family="Hiragino Sans" font-size="18.0" fill="#000000"><tspan x="240.967" y="253.665">発症</tspan></text><path d="M384.649,236.043C381.888,236.043 379.649,233.804 379.649,231.043L379.649,211.043C379.649,208.282 381.888,206.043 384.649,206.043L424.649,206.043C427.411,206.043 429.649,208.282 429.649,211.043L429.649,231.043C429.649,233.804 427.411,236.043 424.649,236.043L404.194,236.043L381.557,261.718L392.759,236.043Z" fill="#FEFEFD" fill-opacity="0.500" stroke="#000000" stroke-width="1.000" stroke-linejoin="round"></path><text x="387.571" y="210.992" font-family="Hiragino Sans" font-size="18.0" fill="#000000"><tspan x="387.571" y="226.992">完治</tspan></text><path d="M518.684,35.773C515.923,35.773 513.684,33.534 513.684,30.773L513.684,10.773C513.684,8.012 515.923,5.773 518.684,5.773L558.684,5.773C561.445,5.773 563.684,8.012 563.684,10.773L563.684,30.773C563.684,33.534 561.445,35.773 558.684,35.773L545.301,35.773L541.255,59.809L533.865,35.773Z" fill="#FEFEFD" fill-opacity="0.500" stroke="#000000" stroke-width="1.000" stroke-linejoin="round"></path><text x="521.072" y="11.197" font-family="Hiragino Sans" font-size="18.0" fill="#000000"><tspan x="521.072" y="27.197">死去</tspan></text><path d="M121.506,260.674L121.506,311.280" fill="none" stroke="#000000" stroke-width="1.000" stroke-linejoin="round"></path><path d="M228.724,210.262L228.724,287.032" fill="none" stroke="#000000" stroke-width="1.000" stroke-linejoin="round"></path><g><path d="M126.456,301.887L326.612,301.887" fill="none" stroke="#000000" stroke-width="1.000" stroke-linejoin="round"></path><polygon points="121.956,301.887 129.638,298.705 129.638,305.069" fill="#000000"></polygon><polygon points="331.112,301.887 323.430,305.069 323.430,298.705" fill="#000000"></polygon></g><text x="139.506" y="277.652" font-family="Hiragino Sans" font-size="18.0" fill="#000000"><tspan x="139.506" y="293.652">潜伏期間</tspan></text><path d="M331.254,160.765L331.254,311.780" fill="none" stroke="#000000" stroke-width="1.000" stroke-linejoin="round"></path><g><path d="M126.456,273.603L224.435,273.603" fill="none" stroke="#000000" stroke-width="1.000" stroke-linejoin="round"></path><polygon points="121.956,273.603 129.638,270.421 129.638,276.785" fill="#000000"></polygon><polygon points="228.935,273.603 221.253,276.785 221.253,270.421" fill="#000000"></polygon></g><text x="176.862" y="305.937" font-family="Hiragino Sans" font-size="18.0" fill="#000000"><tspan x="176.862" y="321.937">快復開始期間</tspan></text><path d="M334.702,233.620C337.463,233.620 339.702,231.382 339.702,228.620L339.702,224.636L360.970,219.341L339.702,212.483L339.702,208.620C339.702,205.859 337.463,203.620 334.702,203.620L294.702,203.620C291.940,203.620 289.702,205.859 289.702,208.620L289.702,228.620C289.702,231.382 291.940,233.620 294.702,233.620Z" fill="#FEFEFD" fill-opacity="0.500" stroke="#000000" stroke-width="1.000" stroke-linejoin="round"></path><text x="298.113" y="207.505" font-family="Hiragino Sans" font-size="18.0" fill="#000000"><tspan x="298.113" y="223.505">快方</tspan></text><text writing-mode="tb" x="106.012" y="99.635" font-family="Hiragino Sans" font-size="18.0" fill="#00006C" stroke="none"><tspan x="97.012" y="99.635">未感染</tspan></text><text writing-mode="tb" x="176.352" y="99.635" font-family="Hiragino Sans" font-size="18.0" fill="#424301" stroke="none"><tspan x="167.352" y="99.635">無症状</tspan></text><text writing-mode="tb" x="317.645" y="99.635" font-family="Hiragino Sans" font-size="18.0" fill="#7F0002" stroke="none"><tspan x="308.645" y="99.635">有症状</tspan></text><text writing-mode="tb" x="463.791" y="189.457" font-family="Hiragino Sans" font-size="18.0" fill="#107F01" stroke="none"><tspan x="454.791" y="189.457">快復</tspan></text><text writing-mode="tb" x="571.639" y="94.162" font-family="Hiragino Sans" font-size="18.0" fill="#303030" stroke="none"><tspan x="562.639" y="94.162">死亡</tspan></text><g><path d="M71.500,159.665L116.500,159.399" fill="none" stroke="#13006B" stroke-width="1.000"></path><polygon points="121.000,159.373 113.337,162.600 113.299,156.236" fill="#13006B"></polygon></g><g><path d="M125.500,159.399L224.500,159.399" fill="none" stroke="#424301" stroke-width="1.000"></path><polygon points="121.000,159.399 128.682,156.217 128.682,162.581" fill="#424301"></polygon><polygon points="229.000,159.399 221.318,162.581 221.318,156.217" fill="#424301"></polygon></g><g><path d="M232.467,159.399L331.342,159.399C349.414,159.399 354.832,134.399 369.068,134.399L535.150,134.399" fill="none" stroke="#7F0002" stroke-width="1.000"></path><polygon points="227.967,159.399 235.649,156.217 235.649,162.581" fill="#7F0002"></polygon><polygon points="539.650,134.399 531.968,137.581 531.968,131.217" fill="#7F0002"></polygon></g><path d="M521.100,160.000L581.100,160.000L581.100,259.500L521.100,259.500Z" fill="#0000FE" fill-opacity="0.245" stroke="none" stroke-width="1.000"></path><text writing-mode="tb" x="561.399" y="189.127" font-family="Hiragino Sans" font-size="18.0" fill="#00006C" stroke="none"><tspan x="552.399" y="189.127">未感染</tspan></text><g><path d="M331.342,159.399C349.414,159.399 354.832,184.399 369.068,184.399L377.150,184.399" fill="none" stroke="#7F0002" stroke-width="1.000"></path><polygon points="381.650,184.399 373.968,187.581 373.968,181.217" fill="#7F0002"></polygon></g><g><path d="M386.492,184.399L516.492,184.399" fill="none" stroke="#1F7F01" stroke-width="1.000"></path><polygon points="381.992,184.399 389.674,181.217 389.674,187.581" fill="#1F7F01"></polygon><polygon points="520.992,184.399 513.310,187.581 513.310,181.217" fill="#1F7F01"></polygon></g><path d="M382.182,261.147L382.182,287.753" fill="none" stroke="#000000" stroke-width="1.000" stroke-linejoin="round"></path><text x="397.682" y="278.125" font-family="Hiragino Sans" font-size="18.0" fill="#000000"><tspan x="397.682" y="294.125">免疫有効期間</tspan></text><g><path d="M387.132,274.076L516.111,274.076" fill="none" stroke="#000000" stroke-width="1.000" stroke-linejoin="round"></path><polygon points="382.632,274.076 390.314,270.894 390.314,277.258" fill="#000000"></polygon><polygon points="520.611,274.076 512.929,277.258 512.929,270.894" fill="#000000"></polygon></g><path d="M521.682,261.860L521.682,288.466" fill="none" stroke="#000000" stroke-width="1.000" stroke-linejoin="round"></path><g><path d="M524.992,184.399L580.992,184.399" fill="none" stroke="#13006B" stroke-width="1.000"></path><polygon points="520.492,184.399 528.174,181.217 528.174,187.581" fill="#13006B"></polygon></g><g><path d="M544.992,134.399L580.992,134.399" fill="none" stroke="#303030" stroke-width="1.000"></path><polygon points="540.492,134.399 548.174,131.217 548.174,137.581" fill="#303030"></polygon></g></g></svg>