<?xml version="1.0" encoding="utf-8"?>
<!DOCTYPE svg PUBLIC "-//W3C//DTD SVG 1.1//EN" "http://www.w3.org/Graphics/SVG/1.1/DTD/svg11.dtd">
<svg version="1.1" width="1280.0" height="700.0" viewBox="0.0000 0.0000 640.0000 350.0000" xmlns="http://www.w3.org/2000/svg" xmlns:xlink="http://www.w3.org/1999/xlink"><desc>Generated by jp.ac.soka.unemi.TUDraw 1.0a1</desc><g><path d="M381.600,160.500L581.100,160.500L581.100,259.500L381.600,259.500Z" fill="#21FE06" fill-opacity="0.251" stroke="none"></path><path d="M540.600,60.500L581.100,60.500L581.100,159.500L540.600,159.500Z" fill="#7F7F7F" fill-opacity="0.250" stroke="none"></path><path d="M228.100,60.500L541.100,60.500L540.977,159.234L382.100,159.354L382.100,259.500L228.100,259.500Z" fill="#FB0106" fill-opacity="0.250" stroke="none"></path><path d="M123.097,60.500L227.103,60.500L227.103,259.500L123.097,259.500Z" fill="#FEFE0A" fill-opacity="0.250" stroke="none"></path><path d="M72.500,60.500L121.500,60.500L121.500,259.500L72.500,259.500Z" fill="#0000FE" fill-opacity="0.250" stroke="none"></path><g><path d="M581.506,260.674L71.506,260.674L71.506,40.674" fill="none" stroke="#000000" stroke-width="2.000"></path><polygon points="590.506,260.674 575.142,267.038 575.142,254.310" fill="#000000"></polygon><polygon points="71.506,31.674 77.870,47.038 65.142,47.038" fill="#000000"></polygon></g><text x="53.280" y="5.000" font-family="Hiragino Sans" font-size="18.0" fill="#000000"><tspan x="53.280" y="21.000">症状</tspan></text><text x="23.000" y="74.883" font-family="Hiragino Sans" font-size="18.0" fill="#000000"><tspan x="23.000" y="90.883">重い</tspan></text><text x="23.000" y="169.662" font-family="Hiragino Sans" font-size="18.0" fill="#000000"><tspan x="23.000" y="185.662">軽い</tspan></text><path d="M121.506,260.674L331.506,160.674" fill="none" stroke="#000000" stroke-width="3.000"></path><path d="M381.506,260.674L331.506,160.674L542.006,61.174" fill="none" stroke="#000000" stroke-width="3.000" stroke-dasharray=" 5.000 2.000"></path><path d="M581.506,60.674L71.506,60.674" fill="none" stroke="#000000" stroke-width="1.000"></path><text x="598.768" y="251.282" font-family="Hiragino Sans" font-size="18.0" fill="#000000"><tspan x="598.768" y="267.282">時間</tspan></text><path d="M281.006,210.174L71.006,210.174" fill="none" stroke="#000000" stroke-width="1.000"></path><text x="23.000" y="50.455" font-family="Hiragino Sans" font-size="18.0" fill="#000000"><tspan x="23.000" y="66.455">死亡</tspan></text><text x="23.000" y="196.735" font-family="Hiragino Sans" font-size="18.0" fill="#000000"><tspan x="23.000" y="212.735">発症</tspan></text><g><path d="M41.506,110.674L41.506,150.674" fill="none" stroke="#000000" stroke-width="2.000"></path><polygon points="41.506,101.674 47.870,117.038 35.142,117.038" fill="#000000"></polygon><polygon points="41.506,159.674 35.142,144.310 47.870,144.310" fill="#000000"></polygon></g><text x="5.000" y="231.674" font-family="Hiragino Sans" font-size="18.0" fill="#000000"><tspan x="5.000" y="247.674">無症状</tspan></text><path d="M98.935,236.638C96.174,236.638 93.935,234.400 93.935,231.638L93.935,211.638C93.935,208.877 96.174,206.638 98.935,206.638L138.935,206.638C141.697,206.638 143.935,208.877 143.935,211.638L143.935,231.638C143.935,234.400 141.697,236.638 138.935,236.638L125.552,236.638L121.506,260.674L114.116,236.638Z" fill="#FEFEFD" fill-opacity="0.500" stroke="#000000" stroke-width="1.000" stroke-linejoin="round"></path><text x="101.506" y="210.674" font-family="Hiragino Sans" font-size="18.0" fill="#000000"><tspan x="101.506" y="226.674">感染</tspan></text><path d="M206.002,185.710C203.241,185.710 201.002,183.471 201.002,180.710L201.002,160.710C201.002,157.949 203.241,155.710 206.002,155.710L246.002,155.710C248.764,155.710 251.002,157.949 251.002,160.710L251.002,180.710C251.002,183.471 248.764,185.710 246.002,185.710L232.619,185.710L228.574,209.745L221.184,185.710Z" fill="#FEFEFD" fill-opacity="0.500" stroke="#000000" stroke-width="1.000" stroke-linejoin="round"></path><text x="207.758" y="159.671" font-family="Hiragino Sans" font-size="18.0" fill="#000000"><tspan x="207.758" y="175.671">発症</tspan></text><path d="M384.649,236.043C381.888,236.043 379.649,233.804 379.649,231.043L379.649,211.043C379.649,208.282 381.888,206.043 384.649,206.043L424.649,206.043C427.411,206.043 429.649,208.282 429.649,211.043L429.649,231.043C429.649,233.804 427.411,236.043 424.649,236.043L404.194,236.043L381.557,261.718L392.759,236.043Z" fill="#FEFEFD" fill-opacity="0.500" stroke="#000000" stroke-width="1.000" stroke-linejoin="round"></path><text x="387.571" y="210.992" font-family="Hiragino Sans" font-size="18.0" fill="#000000"><tspan x="387.571" y="226.992">完治</tspan></text><path d="M518.684,35.773C515.923,35.773 513.684,33.534 513.684,30.773L513.684,10.773C513.684,8.012 515.923,5.773 518.684,5.773L558.684,5.773C561.445,5.773 563.684,8.012 563.684,10.773L563.684,30.773C563.684,33.534 561.445,35.773 558.684,35.773L545.301,35.773L541.255,59.809L533.865,35.773Z" fill="#FEFEFD" fill-opacity="0.500" stroke="#000000" stroke-width="1.000" stroke-linejoin="round"></path><text x="521.072" y="11.197" font-family="Hiragino Sans" font-size="18.0" fill="#000000"><tspan x="521.072" y="27.197">死去</tspan></text><path d="M121.506,260.674L121.506,311.280" fill="none" stroke="#000000" stroke-width="1.000" stroke-linejoin="round"></path><path d="M228.724,210.262L228.724,287.032" fill="none" stroke="#000000" stroke-width="1.000" stroke-linejoin="round"></path><g><path d="M126.456,301.887L326.612,301.887" fill="none" stroke="#000000" stroke-width="1.000" stroke-linejoin="round"></path><polygon points="121.956,301.887 129.638,298.705 129.638,305.069" fill="#000000"></polygon><polygon points="331.112,301.887 323.430,305.069 323.430,298.705" fill="#000000"></polygon></g><text x="141.506" y="277.652" font-family="Hiragino Sans" font-size="18.0" fill="#000000"><tspan x="141.506" y="293.652">潜伏期間</tspan></text><path d="M331.254,160.765L331.254,311.780" fill="none" stroke="#000000" stroke-width="1.000" stroke-linejoin="round"></path><g><path d="M126.456,273.603L224.435,273.603" fill="none" stroke="#000000" stroke-width="1.000" stroke-linejoin="round"></path><polygon points="121.956,273.603 129.638,270.421 129.638,276.785" fill="#000000"></polygon><polygon points="228.935,273.603 221.253,276.785 221.253,270.421" fill="#000000"></polygon></g><text x="176.862" y="305.937" font-family="Hiragino Sans" font-size="18.0" fill="#000000"><tspan x="176.862" y="321.937">快復開始期間</tspan></text><path d="M370.968,196.538C368.207,196.538 365.968,194.300 365.968,191.538L365.968,187.554L344.700,182.259L365.968,175.401L365.968,171.538C365.968,168.777 368.207,166.538 370.968,166.538L410.968,166.538C413.730,166.538 415.968,168.777 415.968,171.538L415.968,191.538C415.968,194.300 413.730,196.538 410.968,196.538Z" fill="#FEFEFD" fill-opacity="0.500" stroke="#000000" stroke-width="1.000" stroke-linejoin="round"></path><text x="372.724" y="170.499" font-family="Hiragino Sans" font-size="18.0" fill="#000000"><tspan x="372.724" y="186.499">快方</tspan></text><text writing-mode="tb" x="106.012" y="92.859" font-family="Hiragino Sans" font-size="18.0" fill="#00006C"><tspan x="97.012" y="92.859">未感染</tspan></text><text writing-mode="tb" x="176.352" y="94.760" font-family="Hiragino Sans" font-size="18.0" fill="#424301"><tspan x="167.352" y="94.760">無症状</tspan></text><text writing-mode="tb" x="317.645" y="92.135" font-family="Hiragino Sans" font-size="18.0" fill="#7F0002"><tspan x="308.645" y="92.135">有症状</tspan></text><text writing-mode="tb" x="472.852" y="182.279" font-family="Hiragino Sans" font-size="18.0" fill="#107F01"><tspan x="463.852" y="182.279">快復</tspan></text><text writing-mode="tb" x="571.639" y="94.162" font-family="Hiragino Sans" font-size="18.0" fill="#303030"><tspan x="562.639" y="94.162">死亡</tspan></text></g></svg>