<?xml version="1.0" encoding="utf-8"?>
<!DOCTYPE svg PUBLIC "-//W3C//DTD SVG 1.1//EN" "http://www.w3.org/Graphics/SVG/1.1/DTD/svg11.dtd">
<svg version="1.1" width="1246.0" height="640.0" viewBox="0.0000 0.0000 623.0000 320.0000" xmlns="http://www.w3.org/2000/svg" xmlns:xlink="http://www.w3.org/1999/xlink"><desc>Generated by jp.ac.soka.unemi.TUDraw 1.0a1</desc><g><path d="M145.945,252.674L145.945,52.363" fill="none" stroke="#B00003" stroke-width="1.000"></path><path d="M110.445,252.674L110.445,32.363" fill="none" stroke="#B00003" stroke-width="1.000"></path><path d="M191.711,72.674L191.445,32.363" fill="none" stroke="#B00003" stroke-width="1.000"></path><path d="M369.987,152.000L509.487,152.000L509.487,251.500L369.987,251.500Z" fill="#21FE06" fill-opacity="0.251" stroke="none" stroke-width="1.000"></path><path d="M488.987,72.500L569.487,72.500L569.487,151.500L488.987,151.500Z" fill="#7F7F7F" fill-opacity="0.250" stroke="none" stroke-width="1.000"></path><path d="M216.487,72.500L489.487,72.500L489.364,151.234L370.487,151.354L370.487,251.500L216.487,251.500Z" fill="#FB0106" fill-opacity="0.250" stroke="none" stroke-width="1.000"></path><path d="M111.484,72.500L215.490,72.500L215.490,251.500L111.484,251.500Z" fill="#FEFE0A" fill-opacity="0.250" stroke="none" stroke-width="1.000"></path><path d="M60.887,72.500L109.887,72.500L109.887,251.500L60.887,251.500Z" fill="#0000FE" fill-opacity="0.250" stroke="none" stroke-width="1.000"></path><g><path d="M569.893,252.674L59.893,252.674L59.893,32.674" fill="none" stroke="#000000" stroke-width="2.000"></path><polygon points="578.893,252.674 563.529,259.038 563.529,246.310" fill="#000000"></polygon><polygon points="59.893,23.674 66.257,39.038 53.529,39.038" fill="#000000"></polygon></g><text x="44.667" y="8.000" font-family="Hiragino Sans" font-size="15.0" fill="#000000"><tspan x="44.667" y="21.000">症状</tspan></text><text x="25.000" y="89.912" font-family="Hiragino Sans" font-size="15.0" fill="#000000"><tspan x="25.000" y="102.912">重い</tspan></text><text x="25.000" y="171.381" font-family="Hiragino Sans" font-size="15.0" fill="#000000"><tspan x="25.000" y="184.381">軽い</tspan></text><path d="M369.893,252.674L319.893,152.674L490.393,73.174" fill="none" stroke="#000000" stroke-width="3.000" stroke-dasharray=" 5.000 2.000"></path><path d="M569.893,72.674L59.893,72.674" fill="none" stroke="#000000" stroke-width="1.000"></path><text x="583.331" y="244.436" font-family="Hiragino Sans" font-size="15.0" fill="#000000"><tspan x="583.331" y="257.436">時間</tspan></text><path d="M269.393,202.174L59.393,202.174" fill="none" stroke="#000000" stroke-width="1.000"></path><text x="25.000" y="63.937" font-family="Hiragino Sans" font-size="15.0" fill="#000000"><tspan x="25.000" y="76.937">死亡</tspan></text><text x="25.000" y="195.579" font-family="Hiragino Sans" font-size="15.0" fill="#000000"><tspan x="25.000" y="208.579">発症</tspan></text><path d="M59.893,252.674L145.945,252.674L191.737,72.848L490.279,72.674" fill="none" stroke="#B00003" stroke-width="3.000"></path><path d="M109.893,252.674L319.893,152.674" fill="none" stroke="#000000" stroke-width="3.000"></path><g><path d="M40.041,116.567L40.041,156.567" fill="none" stroke="#000000" stroke-width="2.000"></path><polygon points="40.041,107.567 46.405,122.931 33.677,122.931" fill="#000000"></polygon><polygon points="40.041,165.567 33.677,150.203 46.405,150.203" fill="#000000"></polygon></g><text x="10.000" y="223.959" font-family="Hiragino Sans" font-size="15.0" fill="#000000"><tspan x="10.000" y="236.959">無症状</tspan></text><path d="M87.322,228.638C84.561,228.638 82.322,226.400 82.322,223.638L82.322,203.638C82.322,200.877 84.561,198.638 87.322,198.638L127.322,198.638C130.084,198.638 132.322,200.877 132.322,203.638L132.322,223.638C132.322,226.400 130.084,228.638 127.322,228.638L113.939,228.638L109.893,252.674L102.503,228.638Z" fill="#FEFEFD" fill-opacity="0.500" stroke="#000000" stroke-width="1.000" stroke-linejoin="round"></path><text x="89.893" y="202.674" font-family="Hiragino Sans" font-size="18.0" fill="#000000"><tspan x="89.893" y="218.674">感染</tspan></text><path d="M226.688,226.001C223.927,226.001 221.688,228.240 221.688,231.001L221.688,251.001C221.688,253.762 223.927,256.001 226.688,256.001L266.688,256.001C269.450,256.001 271.688,253.762 271.688,251.001L271.688,231.001C271.688,228.240 269.450,226.001 266.688,226.001L253.305,226.001L217.186,202.163L231.870,226.001Z" fill="#FEFEFD" fill-opacity="0.500" stroke="#000000" stroke-width="1.000" stroke-linejoin="round"></path><text x="229.354" y="229.665" font-family="Hiragino Sans" font-size="18.0" fill="#000000"><tspan x="229.354" y="245.665">発症</tspan></text><path d="M373.036,228.043C370.275,228.043 368.036,225.804 368.036,223.043L368.036,203.043C368.036,200.282 370.275,198.043 373.036,198.043L413.036,198.043C415.798,198.043 418.036,200.282 418.036,203.043L418.036,223.043C418.036,225.804 415.798,228.043 413.036,228.043L392.581,228.043L369.944,253.718L381.146,228.043Z" fill="#FEFEFD" fill-opacity="0.500" stroke="#000000" stroke-width="1.000" stroke-linejoin="round"></path><text x="375.958" y="202.992" font-family="Hiragino Sans" font-size="18.0" fill="#000000"><tspan x="375.958" y="218.992">完治</tspan></text><path d="M467.071,47.773C464.310,47.773 462.071,45.534 462.071,42.773L462.071,22.773C462.071,20.012 464.310,17.773 467.071,17.773L507.071,17.773C509.832,17.773 512.071,20.012 512.071,22.773L512.071,42.773C512.071,45.534 509.832,47.773 507.071,47.773L493.688,47.773L489.642,71.809L482.252,47.773Z" fill="#FEFEFD" fill-opacity="0.500" stroke="#000000" stroke-width="1.000" stroke-linejoin="round"></path><text x="469.459" y="23.197" font-family="Hiragino Sans" font-size="18.0" fill="#000000"><tspan x="469.459" y="39.197">死去</tspan></text><path d="M109.893,252.674L109.893,303.280" fill="none" stroke="#000000" stroke-width="1.000" stroke-linejoin="round"></path><path d="M217.111,202.262L217.111,279.032" fill="none" stroke="#000000" stroke-width="1.000" stroke-linejoin="round"></path><g><path d="M114.843,293.887L314.999,293.887" fill="none" stroke="#000000" stroke-width="1.000" stroke-linejoin="round"></path><polygon points="110.343,293.887 118.025,290.705 118.025,297.069" fill="#000000"></polygon><polygon points="319.499,293.887 311.817,297.069 311.817,290.705" fill="#000000"></polygon></g><text x="132.893" y="269.652" font-family="Hiragino Sans" font-size="15.0" fill="#000000"><tspan x="132.893" y="282.652">潜伏期間</tspan></text><path d="M319.641,152.765L319.641,303.780" fill="none" stroke="#000000" stroke-width="1.000" stroke-linejoin="round"></path><g><path d="M114.843,265.603L212.822,265.603" fill="none" stroke="#000000" stroke-width="1.000" stroke-linejoin="round"></path><polygon points="110.343,265.603 118.025,262.421 118.025,268.785" fill="#000000"></polygon><polygon points="217.322,265.603 209.640,268.785 209.640,262.421" fill="#000000"></polygon></g><text x="172.249" y="297.937" font-family="Hiragino Sans" font-size="15.0" fill="#000000"><tspan x="172.249" y="310.937">快復開始期間</tspan></text><path d="M323.089,225.620C325.850,225.620 328.089,223.382 328.089,220.620L328.089,216.636L349.357,211.341L328.089,204.483L328.089,200.620C328.089,197.859 325.850,195.620 323.089,195.620L283.089,195.620C280.327,195.620 278.089,197.859 278.089,200.620L278.089,220.620C278.089,223.382 280.327,225.620 283.089,225.620Z" fill="#FEFEFD" fill-opacity="0.500" stroke="#000000" stroke-width="1.000" stroke-linejoin="round"></path><text x="286.500" y="199.505" font-family="Hiragino Sans" font-size="18.0" fill="#000000"><tspan x="286.500" y="215.505">快方</tspan></text><text writing-mode="tb" x="94.399" y="91.635" font-family="Hiragino Sans" font-size="18.0" fill="#00006C"><tspan x="85.399" y="91.635">未感染</tspan></text><text writing-mode="tb" x="164.739" y="91.635" font-family="Hiragino Sans" font-size="18.0" fill="#424301"><tspan x="155.739" y="91.635">無症状</tspan></text><text writing-mode="tb" x="306.032" y="91.635" font-family="Hiragino Sans" font-size="18.0" fill="#7F0002"><tspan x="297.032" y="91.635">有症状</tspan></text><text writing-mode="tb" x="452.178" y="181.457" font-family="Hiragino Sans" font-size="18.0" fill="#107F01"><tspan x="443.178" y="181.457">快復</tspan></text><text writing-mode="tb" x="540.026" y="86.162" font-family="Hiragino Sans" font-size="18.0" fill="#303030"><tspan x="531.026" y="86.162">死亡</tspan></text><g><path d="M59.887,151.665L104.887,151.399" fill="none" stroke="#13006B" stroke-width="1.000"></path><polygon points="109.387,151.372 101.724,154.600 101.686,148.236" fill="#13006B"></polygon></g><g><path d="M113.887,151.399L212.887,151.399" fill="none" stroke="#424301" stroke-width="1.000"></path><polygon points="109.387,151.399 117.069,148.217 117.069,154.581" fill="#424301"></polygon><polygon points="217.387,151.399 209.705,154.581 209.705,148.217" fill="#424301"></polygon></g><g><path d="M220.854,151.399L319.729,151.399C337.801,151.399 343.219,126.399 357.455,126.399L483.537,126.399" fill="none" stroke="#7F0002" stroke-width="1.000"></path><polygon points="216.354,151.399 224.036,148.217 224.036,154.581" fill="#7F0002"></polygon><polygon points="488.037,126.399 480.355,129.581 480.355,123.217" fill="#7F0002"></polygon></g><path d="M509.487,152.000L569.487,152.000L569.487,251.500L509.487,251.500Z" fill="#0000FE" fill-opacity="0.245" stroke="none" stroke-width="1.000"></path><text writing-mode="tb" x="549.786" y="181.127" font-family="Hiragino Sans" font-size="18.0" fill="#00006C"><tspan x="540.786" y="181.127">未感染</tspan></text><g><path d="M319.729,151.399C337.801,151.399 343.219,176.399 357.455,176.399L365.537,176.399" fill="none" stroke="#7F0002" stroke-width="1.000"></path><polygon points="370.037,176.399 362.355,179.581 362.355,173.217" fill="#7F0002"></polygon></g><g><path d="M374.879,176.399L504.879,176.399" fill="none" stroke="#1F7F01" stroke-width="1.000"></path><polygon points="370.379,176.399 378.061,173.217 378.061,179.581" fill="#1F7F01"></polygon><polygon points="509.379,176.399 501.697,179.581 501.697,173.217" fill="#1F7F01"></polygon></g><path d="M370.569,253.147L370.569,279.753" fill="none" stroke="#000000" stroke-width="1.000" stroke-linejoin="round"></path><text x="396.069" y="270.125" font-family="Hiragino Sans" font-size="15.0" fill="#000000"><tspan x="396.069" y="283.125">免疫有効期間</tspan></text><g><path d="M375.519,266.076L504.498,266.076" fill="none" stroke="#000000" stroke-width="1.000" stroke-linejoin="round"></path><polygon points="371.019,266.076 378.701,262.894 378.701,269.258" fill="#000000"></polygon><polygon points="508.998,266.076 501.316,269.258 501.316,262.894" fill="#000000"></polygon></g><path d="M510.069,253.860L510.069,280.466" fill="none" stroke="#000000" stroke-width="1.000" stroke-linejoin="round"></path><g><path d="M513.379,176.399L569.379,176.399" fill="none" stroke="#13006B" stroke-width="1.000"></path><polygon points="508.879,176.399 516.561,173.217 516.561,179.581" fill="#13006B"></polygon></g><g><path d="M493.379,126.399L569.379,126.399" fill="none" stroke="#303030" stroke-width="1.000"></path><polygon points="488.879,126.399 496.561,123.217 496.561,129.581" fill="#303030"></polygon></g><g><path d="M141.355,62.507L114.923,62.651" fill="none" stroke="#B00003" stroke-width="1.000"></path><polygon points="145.855,62.482 138.190,65.706 138.155,59.342" fill="#B00003"></polygon><polygon points="110.423,62.676 118.087,59.452 118.122,65.816" fill="#B00003"></polygon></g><g><path d="M186.234,42.386L114.923,42.651" fill="none" stroke="#B00003" stroke-width="1.000"></path><polygon points="190.734,42.369 183.063,45.580 183.040,39.216" fill="#B00003"></polygon><polygon points="110.423,42.668 118.093,39.458 118.117,45.822" fill="#B00003"></polygon></g><text x="206.199" y="53.996" font-family="Hiragino Sans" font-size="15.0" fill="#B00003"><tspan x="206.199" y="66.996">感染性</tspan></text><text x="114.802" y="28.863" font-family="Hiragino Sans" font-size="10.0" fill="#B00003"><tspan x="114.802" y="37.863">ピーク到達期間</tspan></text><text x="119.541" y="49.404" font-family="Hiragino Sans" font-size="10.0" fill="#B00003"><tspan x="119.541" y="58.404">遅れ</tspan></text></g></svg>