<?xml version="1.0" encoding="utf-8"?>
<!DOCTYPE svg PUBLIC "-//W3C//DTD SVG 1.1//EN" "http://www.w3.org/Graphics/SVG/1.1/DTD/svg11.dtd">
<svg version="1.1" width="670.0" height="620.0" viewBox="0.0000 0.0000 670.0000 620.0000" xmlns="http://www.w3.org/2000/svg" xmlns:xlink="http://www.w3.org/1999/xlink"><desc>Generated by jp.ac.soka.unemi.TUDraw 1.0a1</desc><rect x="0" y="0" width="100%" height="100%" fill="#FEFEFE"></rect><g><path d="M10.500,61.210L609.500,61.210L609.500,559.968L10.500,559.968Z" fill="none" stroke="#000000" stroke-width="3.000"></path><path d="M510.500,61.210L510.500,559.968" fill="none" stroke="#000000" stroke-width="3.000"></path><path d="M510.568,306.089L609.432,306.089" fill="none" stroke="#000000" stroke-width="3.000"></path><g><path d="M18.873,477.823L501.737,477.823" fill="none" stroke="#000000" stroke-width="1.000"></path><polygon points="11.373,477.823 24.176,472.520 24.176,483.126" fill="#000000"></polygon><polygon points="509.237,477.823 496.434,483.126 496.434,472.520" fill="#000000"></polygon></g><g><path d="M87.371,552.756L87.371,69.891" fill="none" stroke="#000000" stroke-width="1.000"></path><polygon points="87.371,560.256 82.068,547.453 92.674,547.453" fill="#000000"></polygon><polygon points="87.371,62.391 92.674,75.194 82.068,75.194" fill="#000000"></polygon></g><g><path d="M518.873,477.823L601.737,477.823" fill="none" stroke="#000000" stroke-width="1.000"></path><polygon points="511.373,477.823 524.176,472.520 524.176,483.126" fill="#000000"></polygon><polygon points="609.237,477.823 596.434,483.126 596.434,472.520" fill="#000000"></polygon></g><text x="196.766" y="284.027" font-family="Hiragino Sans" font-size="24.0" fill="#000000"><tspan x="196.766" y="305.027">フィールド</tspan></text><text x="534.109" y="167.171" font-family="Hiragino Sans" font-size="24.0" fill="#000000"><tspan x="534.109" y="188.171">病院</tspan></text><text x="534.109" y="407.171" font-family="Hiragino Sans" font-size="24.0" fill="#000000"><tspan x="534.109" y="428.171">墓地</tspan></text><path d="M227.668,463.816L300.035,463.816L300.035,491.003L227.668,491.003Z" fill="#FEFEFE" stroke="none" stroke-width="1.000"></path><text x="231.461" y="467.749" font-family="Hiragino Sans" font-size="18.0" fill="#000000"><tspan x="231.461" y="483.749">10,000</tspan></text><path d="M50.965,280.273L123.332,280.273L123.332,307.460L50.965,307.460Z" fill="#FEFEFE" stroke="none" stroke-width="1.000"></path><text x="54.758" y="284.206" font-family="Hiragino Sans" font-size="18.0" fill="#000000"><tspan x="54.758" y="300.206">10,000</tspan></text><path d="M532.566,461.663L588.934,461.663L588.934,488.851L532.566,488.851Z" fill="#FEFEFE" stroke="none" stroke-width="1.000"></path><text x="536.359" y="465.597" font-family="Hiragino Sans" font-size="18.0" fill="#000000"><tspan x="536.359" y="481.597">2,000</tspan></text><g><path d="M432.371,297.932L432.371,69.891" fill="none" stroke="#000000" stroke-width="1.000"></path><polygon points="432.371,305.432 427.068,292.629 437.674,292.629" fill="#000000"></polygon><polygon points="432.371,62.391 437.674,75.194 427.068,75.194" fill="#000000"></polygon></g><g><path d="M432.371,552.756L432.371,313.891" fill="none" stroke="#000000" stroke-width="1.000"></path><polygon points="432.371,560.256 427.068,547.453 437.674,547.453" fill="#000000"></polygon><polygon points="432.371,306.391 437.674,319.194 427.068,319.194" fill="#000000"></polygon></g><path d="M403.036,165.273L461.261,165.273L461.261,192.460L403.036,192.460Z" fill="#FEFEFE" stroke="none" stroke-width="1.000"></path><text x="406.475" y="169.206" font-family="Hiragino Sans" font-size="18.0" fill="#000000"><tspan x="406.475" y="185.206">5,000</tspan></text><path d="M403.036,405.273L461.261,405.273L461.261,432.460L403.036,432.460Z" fill="#FEFEFE" stroke="none" stroke-width="1.000"></path><text x="406.475" y="409.206" font-family="Hiragino Sans" font-size="18.0" fill="#000000"><tspan x="406.475" y="425.206">5,000</tspan></text><path d="M409.568,306.089L508.432,306.089" fill="none" stroke="#000000" stroke-width="1.000"></path><g><path d="M610.320,560.589L642.115,560.589" fill="none" stroke="#000000" stroke-width="1.000"></path><polygon points="649.615,560.589 636.812,565.892 636.812,555.286" fill="#000000"></polygon></g><text x="2.578" y="565.839" font-family="Hiragino Sans" font-size="18.0" fill="#000000"><tspan x="2.578" y="581.839">(0, 0)</tspan></text><text x="653.669" y="550.089" font-family="Hiragino Sans" font-size="18.0" fill="#000000" transform="matrix(1.000,0.000,0.000,1.000,0.000,0.000)"><tspan x="653.669" y="566.089">X</tspan></text><text x="203.000" y="589.855" font-family="Hiragino Sans" font-size="24.0" fill="#000000"><tspan x="203.000" y="610.855">世界の領域配置と座標系</tspan></text><g><path d="M10.124,60.089L10.124,28.289" fill="none" stroke="#000000" stroke-width="1.000"></path><polygon points="10.124,20.789 15.427,33.592 4.821,33.592" fill="#000000"></polygon></g><text x="3.808" y="3.000" font-family="Hiragino Sans" font-size="18.0" fill="#000000" transform="matrix(1.000,0.000,0.000,1.000,0.000,0.000)"><tspan x="3.808" y="19.000">Y</tspan></text></g></svg>