<?xml version="1.0" encoding="utf-8"?>
<!DOCTYPE svg PUBLIC "-//W3C//DTD SVG 1.1//EN" "http://www.w3.org/Graphics/SVG/1.1/DTD/svg11.dtd">
<svg version="1.1" width="512.0" height="512.0" viewBox="0.0000 0.0000 512.0000 512.0000" xmlns="http://www.w3.org/2000/svg" xmlns:xlink="http://www.w3.org/1999/xlink"><desc id="GridAndSnap" width="917.0" height="800.0">0 10.000 0 -100.000 -100.000 72.000 Generated by jp.ac.soka.unemi.TUDraw 1.0a1</desc><defs><filter id="F0" filterUnits="userSpaceOnUse"><desc>Drop Shadow,20.000,5.000,-45.0,0.800</desc><feGaussianBlur stdDeviation="6.667" in="SourceAlpha" result="E0"></feGaussianBlur><feComponentTransfer in="E0" result="E1"><feFuncA type="gamma" amplitude="0.800" exponent="0.750"></feFuncA></feComponentTransfer><feOffset dx="3.536" dy="3.536" in="E1" result="E2"></feOffset><feMerge><feMergeNode in="E2"></feMergeNode><feMergeNode in="SourceGraphic"></feMergeNode></feMerge></filter><clipPath id="C1"><path d="M283.498,240.678C298.270,250.961 364.827,262.375 402.327,253.949C392.722,230.342 378.019,211.813 357.068,207.263C330.222,201.433 298.099,212.233 283.498,240.678"></path></clipPath><clipPath id="C0"><path d="M222.517,243.894C209.054,255.839 144.295,274.982 106.066,271.014C112.835,246.443 125.263,226.318 145.535,219.341C171.511,210.402 204.680,217.359 222.517,243.894"></path></clipPath><radialGradient id="G0" cx="0.500" cy="0.500" fx="0.500" fy="0.500" r="0.800"><stop stop-color="#F5D5C0" offset="0.000"></stop><stop stop-color="#C68D86" offset="1.000"></stop></radialGradient></defs><g><path d="M433.401,92.682C503.086,181.055 501.418,336.072 413.745,423.744C326.073,511.416 183.927,511.416 96.255,423.744C8.582,336.072 -6.935,182.845 78.036,92.986C172.420,-6.827 349.498,-13.726 433.401,92.682" fill="#FEFEFE" fill-opacity="0.483" stroke="none" filter="url(#F0)"></path><path d="M413.745,106.256C501.418,193.928 501.418,336.072 413.745,423.744C326.073,511.416 183.927,511.416 96.255,423.744C8.582,336.072 8.582,193.928 96.255,106.256C183.927,18.584 326.073,18.584 413.745,106.256" fill="url(#G0)" stroke="none"></path><g><path d="M102.834,290.009C113.608,345.457 127.767,383.689 116.027,430.462C187.560,462.757 267.524,472.065 267.524,472.065C267.524,472.065 355.604,470.344 402.699,430.343C393.658,345.714 401.264,325.076 408.823,276.480C375.723,274.069 348.114,303.198 308.192,294.433C286.929,289.764 285.688,261.942 263.944,263.387C243.151,264.768 245.755,291.522 226.140,298.399C179.606,314.712 140.350,290.256 102.834,290.009" fill="#9DC4DF" stroke="#000000" stroke-width="9.000" stroke-linecap="round"></path><path d="M31.398,283.203L101.266,291.008" fill="none" stroke="#000000" stroke-width="9.000" stroke-linecap="round"></path><path d="M70.277,394.262L116.477,428.836" fill="none" stroke="#000000" stroke-width="9.000" stroke-linecap="round"></path><path d="M479.602,243.598L409.980,279.008" fill="none" stroke="#000000" stroke-width="9.000" stroke-linecap="round"></path><path d="M451.691,372.891L405.562,424.570" fill="none" stroke="#000000" stroke-width="9.000" stroke-linecap="round"></path></g><g><path d="M222.517,243.894C209.054,255.839 144.295,274.982 106.066,271.014C112.835,246.443 125.263,226.318 145.535,219.341C171.511,210.402 204.680,217.359 222.517,243.894" fill="#FEFEFE" stroke="#513A23" stroke-width="6.000"></path><path d="M178.665,219.667C191.018,232.574 191.018,253.499 178.665,266.406C166.313,279.312 146.285,279.312 133.933,266.406C121.580,253.499 121.580,232.574 133.933,219.667C146.285,206.761 166.313,206.761 178.665,219.667" fill="#000000" stroke="none" stroke-width="1.000" clip-path="url(#C0)"></path><path d="M168.604,230.537C171.176,232.514 171.176,235.721 168.604,237.698C166.034,239.675 161.864,239.675 159.293,237.698C156.721,235.721 156.721,232.514 159.293,230.537C161.864,228.559 166.034,228.559 168.604,230.537" fill="#FEFEFE" stroke="none" stroke-width="1.000"></path></g><g><path d="M283.498,240.678C298.270,250.961 364.827,262.375 402.327,253.949C392.722,230.342 378.019,211.813 357.068,207.263C330.222,201.433 298.099,212.233 283.498,240.678" fill="#FEFEFE" stroke="#513A23" stroke-width="6.000"></path><path d="M324.205,211.474C313.452,225.740 315.907,246.521 329.688,257.890C343.470,269.258 363.359,266.908 374.112,252.642C384.866,238.375 382.411,217.594 368.629,206.226C354.847,194.858 334.959,197.207 324.205,211.474" fill="#000000" stroke="none" stroke-width="1.000" clip-path="url(#C1)"></path><path d="M364.993,219.178C367.779,220.841 368.155,224.024 365.834,226.290C363.512,228.556 359.372,229.045 356.586,227.382C353.801,225.720 353.425,222.536 355.746,220.270C358.068,218.005 362.208,217.516 364.993,219.178" fill="#FEFEFE" stroke="none" stroke-width="1.000"></path></g><g><path d="M157.142,162.071C116.245,173.056 84.242,199.695 26.463,270.475C19.055,178.677 34.650,141.206 80.928,89.697C100.042,68.422 122.701,51.563 147.512,39.446Z" fill="#725232" stroke="none" stroke-width="1.000" stroke-linecap="round"></path><path d="M204.367,19.443C284.866,1.649 373.731,24.719 429.849,89.697C483.967,152.359 484.132,166.521 479.670,230.057C386.199,161.604 359.531,148.673 246.963,153.037C229.652,153.708 214.518,154.281 200.904,155.346Z" fill="#8A693F" stroke="none" stroke-width="1.000" stroke-linecap="round"></path><path d="M216.764,16.951C208.501,69.412 211.107,129.539 214.341,154.527C166.736,157.085 137.152,162.799 101.869,190.963C103.391,169.608 102.997,108.073 114.593,59.483C144.899,37.116 180.196,22.861 216.764,16.951" fill="#7D6142" stroke="none" stroke-width="1.000" stroke-linecap="round"></path></g><g></g></g></svg>